<mxfile host="app.diagrams.net" modified="2021-09-08T03:00:53.551Z" agent="5.0 (Windows NT 10.0; Win64; x64) AppleWebKit/537.36 (KHTML, like Gecko) Chrome/92.0.4515.159 Safari/537.36" etag="D84dpQvc28CFdg5KJebM" version="14.9.6" type="github">
  <diagram id="6a731a19-8d31-9384-78a2-239565b7b9f0" name="Page-1">
    <mxGraphModel dx="4141" dy="559" grid="1" gridSize="10" guides="1" tooltips="1" connect="1" arrows="1" fold="1" page="1" pageScale="1" pageWidth="1169" pageHeight="827" background="#ffffff" math="0" shadow="0">
      <root>
        <mxCell id="0" />
        <mxCell id="1" parent="0" />
        <mxCell id="QqLaPCVbhCv1RFTXZ3X0-150" value="" style="group" vertex="1" connectable="0" parent="1">
          <mxGeometry x="154" y="850.5" width="2030.33" height="1140" as="geometry" />
        </mxCell>
        <mxCell id="56" value="Project&#xa;" style="strokeColor=#BAC8D3;fillColor=#23445D;fontSize=24;strokeWidth=2;fontFamily=Helvetica;html=1;fontColor=#FFFFFF;fontStyle=0;spacingBottom=8;spacingRight=0;spacingLeft=83;" parent="QqLaPCVbhCv1RFTXZ3X0-150" vertex="1">
          <mxGeometry width="2030" height="80" as="geometry" />
        </mxCell>
        <mxCell id="57" value="Lane 1" style="strokeColor=#BAC8D3;fillColor=#23445D;fontSize=24;strokeWidth=2;horizontal=0;fontFamily=Helvetica;html=1;fontColor=#FFFFFF;fontStyle=0" parent="QqLaPCVbhCv1RFTXZ3X0-150" vertex="1">
          <mxGeometry y="80" width="56" height="300" as="geometry" />
        </mxCell>
        <mxCell id="64" value="Lane 2" style="strokeColor=#BAC8D3;fillColor=#23445D;fontSize=24;strokeWidth=2;horizontal=0;fontFamily=Helvetica;html=1;fontColor=#FFFFFF;fontStyle=0" parent="QqLaPCVbhCv1RFTXZ3X0-150" vertex="1">
          <mxGeometry y="380" width="56" height="299.5" as="geometry" />
        </mxCell>
        <mxCell id="67" value="Lane 3" style="strokeColor=#BAC8D3;fillColor=#23445D;fontSize=24;strokeWidth=2;horizontal=0;fontFamily=Helvetica;html=1;fontColor=#FFFFFF;fontStyle=0" parent="QqLaPCVbhCv1RFTXZ3X0-150" vertex="1">
          <mxGeometry y="679.5" width="56" height="460.5" as="geometry" />
        </mxCell>
        <mxCell id="82" value="" style="strokeColor=#FFFFFF;fillColor=#BAC8D3;fontSize=18;strokeWidth=2;fontFamily=Helvetica;html=1;opacity=60;" parent="QqLaPCVbhCv1RFTXZ3X0-150" vertex="1">
          <mxGeometry x="56" y="80" width="1974.33" height="299.5" as="geometry" />
        </mxCell>
        <mxCell id="QqLaPCVbhCv1RFTXZ3X0-146" value="" style="strokeColor=#FFFFFF;fillColor=#BAC8D3;fontSize=18;strokeWidth=2;fontFamily=Helvetica;html=1;opacity=60;" vertex="1" parent="QqLaPCVbhCv1RFTXZ3X0-150">
          <mxGeometry x="56" y="380" width="1974.33" height="299.5" as="geometry" />
        </mxCell>
        <mxCell id="QqLaPCVbhCv1RFTXZ3X0-147" value="" style="strokeColor=#FFFFFF;fillColor=#BAC8D3;fontSize=18;strokeWidth=2;fontFamily=Helvetica;html=1;opacity=60;" vertex="1" parent="QqLaPCVbhCv1RFTXZ3X0-150">
          <mxGeometry x="55.67" y="679.5" width="1974.33" height="460.5" as="geometry" />
        </mxCell>
        <mxCell id="QqLaPCVbhCv1RFTXZ3X0-183" value="network" style="rounded=1;whiteSpace=wrap;html=1;fillColor=#f5f5f5;strokeColor=#666666;fontColor=#333333;align=center;verticalAlign=bottom;fontStyle=1" vertex="1" parent="QqLaPCVbhCv1RFTXZ3X0-150">
          <mxGeometry x="402.25" y="140" width="120" height="180" as="geometry" />
        </mxCell>
        <mxCell id="QqLaPCVbhCv1RFTXZ3X0-184" value="3C" style="rounded=1;whiteSpace=wrap;html=1;fillColor=#f5f5f5;strokeColor=#666666;fontColor=#333333;align=center;verticalAlign=bottom;fontStyle=1" vertex="1" parent="QqLaPCVbhCv1RFTXZ3X0-150">
          <mxGeometry x="272.25" y="140" width="120" height="180" as="geometry" />
        </mxCell>
        <mxCell id="QqLaPCVbhCv1RFTXZ3X0-185" value="input" style="rounded=1;whiteSpace=wrap;html=1;fillColor=#f5f5f5;strokeColor=#666666;fontColor=#333333;align=center;verticalAlign=bottom;fontStyle=1" vertex="1" parent="QqLaPCVbhCv1RFTXZ3X0-150">
          <mxGeometry x="146" y="140" width="120" height="180" as="geometry" />
        </mxCell>
        <mxCell id="QqLaPCVbhCv1RFTXZ3X0-186" value="" style="group" vertex="1" connectable="0" parent="QqLaPCVbhCv1RFTXZ3X0-150">
          <mxGeometry x="162.25" y="198" width="83.75" height="50" as="geometry" />
        </mxCell>
        <mxCell id="QqLaPCVbhCv1RFTXZ3X0-187" value="" style="verticalLabelPosition=bottom;html=1;verticalAlign=top;align=center;strokeColor=none;fillColor=#00BEF2;shape=mxgraph.azure.user;" vertex="1" parent="QqLaPCVbhCv1RFTXZ3X0-186">
          <mxGeometry x="20" width="47.5" height="50" as="geometry" />
        </mxCell>
        <mxCell id="QqLaPCVbhCv1RFTXZ3X0-188" value="" style="verticalLabelPosition=bottom;html=1;verticalAlign=top;align=center;strokeColor=none;fillColor=#00BEF2;shape=mxgraph.azure.user;" vertex="1" parent="QqLaPCVbhCv1RFTXZ3X0-186">
          <mxGeometry width="47.5" height="50" as="geometry" />
        </mxCell>
        <mxCell id="QqLaPCVbhCv1RFTXZ3X0-189" value="" style="verticalLabelPosition=bottom;html=1;verticalAlign=top;align=center;strokeColor=none;fillColor=#00BEF2;shape=mxgraph.azure.user;" vertex="1" parent="QqLaPCVbhCv1RFTXZ3X0-186">
          <mxGeometry x="36.25" width="47.5" height="50" as="geometry" />
        </mxCell>
        <mxCell id="QqLaPCVbhCv1RFTXZ3X0-190" value="... ..." style="rounded=1;whiteSpace=wrap;html=1;fillColor=#f5f5f5;strokeColor=#666666;fontColor=#333333;align=center;verticalAlign=bottom;fontStyle=1" vertex="1" parent="QqLaPCVbhCv1RFTXZ3X0-150">
          <mxGeometry x="532.25" y="140" width="120" height="180" as="geometry" />
        </mxCell>
        <mxCell id="QqLaPCVbhCv1RFTXZ3X0-194" value="network" style="rounded=1;whiteSpace=wrap;html=1;fillColor=#f5f5f5;strokeColor=#666666;fontColor=#333333;align=center;verticalAlign=bottom;fontStyle=1" vertex="1" parent="QqLaPCVbhCv1RFTXZ3X0-150">
          <mxGeometry x="1092.25" y="140" width="120" height="180" as="geometry" />
        </mxCell>
        <mxCell id="QqLaPCVbhCv1RFTXZ3X0-195" value="3C" style="rounded=1;whiteSpace=wrap;html=1;fillColor=#f5f5f5;strokeColor=#666666;fontColor=#333333;align=center;verticalAlign=bottom;fontStyle=1" vertex="1" parent="QqLaPCVbhCv1RFTXZ3X0-150">
          <mxGeometry x="962.25" y="140" width="120" height="180" as="geometry" />
        </mxCell>
        <mxCell id="QqLaPCVbhCv1RFTXZ3X0-196" value="input" style="rounded=1;whiteSpace=wrap;html=1;fillColor=#f5f5f5;strokeColor=#666666;fontColor=#333333;align=center;verticalAlign=bottom;fontStyle=1" vertex="1" parent="QqLaPCVbhCv1RFTXZ3X0-150">
          <mxGeometry x="836" y="140" width="120" height="180" as="geometry" />
        </mxCell>
        <mxCell id="QqLaPCVbhCv1RFTXZ3X0-197" value="" style="group" vertex="1" connectable="0" parent="QqLaPCVbhCv1RFTXZ3X0-150">
          <mxGeometry x="852.25" y="198" width="83.75" height="50" as="geometry" />
        </mxCell>
        <mxCell id="QqLaPCVbhCv1RFTXZ3X0-198" value="" style="verticalLabelPosition=bottom;html=1;verticalAlign=top;align=center;strokeColor=none;fillColor=#00BEF2;shape=mxgraph.azure.user;" vertex="1" parent="QqLaPCVbhCv1RFTXZ3X0-197">
          <mxGeometry x="20" width="47.5" height="50" as="geometry" />
        </mxCell>
        <mxCell id="QqLaPCVbhCv1RFTXZ3X0-199" value="" style="verticalLabelPosition=bottom;html=1;verticalAlign=top;align=center;strokeColor=none;fillColor=#00BEF2;shape=mxgraph.azure.user;" vertex="1" parent="QqLaPCVbhCv1RFTXZ3X0-197">
          <mxGeometry width="47.5" height="50" as="geometry" />
        </mxCell>
        <mxCell id="QqLaPCVbhCv1RFTXZ3X0-200" value="" style="verticalLabelPosition=bottom;html=1;verticalAlign=top;align=center;strokeColor=none;fillColor=#00BEF2;shape=mxgraph.azure.user;" vertex="1" parent="QqLaPCVbhCv1RFTXZ3X0-197">
          <mxGeometry x="36.25" width="47.5" height="50" as="geometry" />
        </mxCell>
        <mxCell id="QqLaPCVbhCv1RFTXZ3X0-201" value="... ..." style="rounded=1;whiteSpace=wrap;html=1;fillColor=#f5f5f5;strokeColor=#666666;fontColor=#333333;align=center;verticalAlign=bottom;fontStyle=1" vertex="1" parent="QqLaPCVbhCv1RFTXZ3X0-150">
          <mxGeometry x="1222.25" y="140" width="120" height="180" as="geometry" />
        </mxCell>
        <mxCell id="QqLaPCVbhCv1RFTXZ3X0-202" value="" style="verticalLabelPosition=bottom;html=1;verticalAlign=top;align=center;strokeColor=none;fillColor=#00BEF2;shape=mxgraph.azure.user;" vertex="1" parent="QqLaPCVbhCv1RFTXZ3X0-150">
          <mxGeometry x="998.5" y="200" width="47.5" height="50" as="geometry" />
        </mxCell>
        <mxCell id="QqLaPCVbhCv1RFTXZ3X0-203" value="" style="verticalLabelPosition=bottom;html=1;verticalAlign=top;align=center;strokeColor=none;fillColor=#00BEF2;shape=mxgraph.azure.user;" vertex="1" parent="QqLaPCVbhCv1RFTXZ3X0-150">
          <mxGeometry x="1128.5" y="200" width="47.5" height="50" as="geometry" />
        </mxCell>
        <mxCell id="QqLaPCVbhCv1RFTXZ3X0-204" value="" style="verticalLabelPosition=bottom;html=1;verticalAlign=top;align=center;strokeColor=none;fillColor=#00BEF2;shape=mxgraph.azure.user;" vertex="1" parent="QqLaPCVbhCv1RFTXZ3X0-150">
          <mxGeometry x="1258.5" y="200" width="47.5" height="50" as="geometry" />
        </mxCell>
        <mxCell id="QqLaPCVbhCv1RFTXZ3X0-218" value="network" style="rounded=1;whiteSpace=wrap;html=1;fillColor=#f5f5f5;strokeColor=#666666;fontColor=#333333;align=center;verticalAlign=bottom;fontStyle=1" vertex="1" parent="QqLaPCVbhCv1RFTXZ3X0-150">
          <mxGeometry x="1752.25" y="140" width="120" height="180" as="geometry" />
        </mxCell>
        <mxCell id="QqLaPCVbhCv1RFTXZ3X0-219" value="3C" style="rounded=1;whiteSpace=wrap;html=1;fillColor=#f5f5f5;strokeColor=#666666;fontColor=#333333;align=center;verticalAlign=bottom;fontStyle=1" vertex="1" parent="QqLaPCVbhCv1RFTXZ3X0-150">
          <mxGeometry x="1622.25" y="140" width="120" height="180" as="geometry" />
        </mxCell>
        <mxCell id="QqLaPCVbhCv1RFTXZ3X0-220" value="input" style="rounded=1;whiteSpace=wrap;html=1;fillColor=#f5f5f5;strokeColor=#666666;fontColor=#333333;align=center;verticalAlign=bottom;fontStyle=1" vertex="1" parent="QqLaPCVbhCv1RFTXZ3X0-150">
          <mxGeometry x="1496" y="140" width="120" height="180" as="geometry" />
        </mxCell>
        <mxCell id="QqLaPCVbhCv1RFTXZ3X0-221" value="" style="group" vertex="1" connectable="0" parent="QqLaPCVbhCv1RFTXZ3X0-150">
          <mxGeometry x="1636" y="198" width="83.75" height="50" as="geometry" />
        </mxCell>
        <mxCell id="QqLaPCVbhCv1RFTXZ3X0-222" value="" style="verticalLabelPosition=bottom;html=1;verticalAlign=top;align=center;strokeColor=none;fillColor=#00BEF2;shape=mxgraph.azure.user;" vertex="1" parent="QqLaPCVbhCv1RFTXZ3X0-221">
          <mxGeometry x="20" width="47.5" height="50" as="geometry" />
        </mxCell>
        <mxCell id="QqLaPCVbhCv1RFTXZ3X0-223" value="" style="verticalLabelPosition=bottom;html=1;verticalAlign=top;align=center;strokeColor=none;fillColor=#00BEF2;shape=mxgraph.azure.user;" vertex="1" parent="QqLaPCVbhCv1RFTXZ3X0-221">
          <mxGeometry width="47.5" height="50" as="geometry" />
        </mxCell>
        <mxCell id="QqLaPCVbhCv1RFTXZ3X0-224" value="" style="verticalLabelPosition=bottom;html=1;verticalAlign=top;align=center;strokeColor=none;fillColor=#00BEF2;shape=mxgraph.azure.user;" vertex="1" parent="QqLaPCVbhCv1RFTXZ3X0-221">
          <mxGeometry x="36.25" width="47.5" height="50" as="geometry" />
        </mxCell>
        <mxCell id="QqLaPCVbhCv1RFTXZ3X0-225" value="... ..." style="rounded=1;whiteSpace=wrap;html=1;fillColor=#f5f5f5;strokeColor=#666666;fontColor=#333333;align=center;verticalAlign=bottom;fontStyle=1" vertex="1" parent="QqLaPCVbhCv1RFTXZ3X0-150">
          <mxGeometry x="1882.25" y="140" width="120" height="180" as="geometry" />
        </mxCell>
        <mxCell id="QqLaPCVbhCv1RFTXZ3X0-226" value="" style="verticalLabelPosition=bottom;html=1;verticalAlign=top;align=center;strokeColor=none;fillColor=#00BEF2;shape=mxgraph.azure.user;" vertex="1" parent="QqLaPCVbhCv1RFTXZ3X0-150">
          <mxGeometry x="1526" y="200" width="47.5" height="50" as="geometry" />
        </mxCell>
        <mxCell id="QqLaPCVbhCv1RFTXZ3X0-227" value="" style="verticalLabelPosition=bottom;html=1;verticalAlign=top;align=center;strokeColor=none;fillColor=#00BEF2;shape=mxgraph.azure.user;" vertex="1" parent="QqLaPCVbhCv1RFTXZ3X0-150">
          <mxGeometry x="1788.5" y="200" width="47.5" height="50" as="geometry" />
        </mxCell>
        <mxCell id="QqLaPCVbhCv1RFTXZ3X0-228" value="" style="verticalLabelPosition=bottom;html=1;verticalAlign=top;align=center;strokeColor=none;fillColor=#00BEF2;shape=mxgraph.azure.user;" vertex="1" parent="QqLaPCVbhCv1RFTXZ3X0-150">
          <mxGeometry x="1918.5" y="200" width="47.5" height="50" as="geometry" />
        </mxCell>
        <mxCell id="QqLaPCVbhCv1RFTXZ3X0-230" value="" style="shape=flexArrow;endArrow=classic;html=1;" edge="1" parent="QqLaPCVbhCv1RFTXZ3X0-150">
          <mxGeometry width="50" height="50" relative="1" as="geometry">
            <mxPoint x="706" y="229.71000000000004" as="sourcePoint" />
            <mxPoint x="786" y="229.71000000000004" as="targetPoint" />
          </mxGeometry>
        </mxCell>
        <mxCell id="QqLaPCVbhCv1RFTXZ3X0-251" value="network" style="rounded=1;whiteSpace=wrap;html=1;fillColor=#f5f5f5;strokeColor=#666666;fontColor=#333333;align=center;verticalAlign=bottom;fontStyle=1" vertex="1" parent="QqLaPCVbhCv1RFTXZ3X0-150">
          <mxGeometry x="1092.25" y="429.5" width="120" height="180" as="geometry" />
        </mxCell>
        <mxCell id="QqLaPCVbhCv1RFTXZ3X0-252" value="3C" style="rounded=1;whiteSpace=wrap;html=1;fillColor=#f5f5f5;strokeColor=#666666;fontColor=#333333;align=center;verticalAlign=bottom;fontStyle=1" vertex="1" parent="QqLaPCVbhCv1RFTXZ3X0-150">
          <mxGeometry x="962.25" y="429.5" width="120" height="180" as="geometry" />
        </mxCell>
        <mxCell id="QqLaPCVbhCv1RFTXZ3X0-253" value="input" style="rounded=1;whiteSpace=wrap;html=1;fillColor=#f5f5f5;strokeColor=#666666;fontColor=#333333;align=center;verticalAlign=bottom;fontStyle=1" vertex="1" parent="QqLaPCVbhCv1RFTXZ3X0-150">
          <mxGeometry x="836" y="429.5" width="120" height="180" as="geometry" />
        </mxCell>
        <mxCell id="QqLaPCVbhCv1RFTXZ3X0-254" value="" style="group" vertex="1" connectable="0" parent="QqLaPCVbhCv1RFTXZ3X0-150">
          <mxGeometry x="976" y="487.5" width="83.75" height="50" as="geometry" />
        </mxCell>
        <mxCell id="QqLaPCVbhCv1RFTXZ3X0-255" value="" style="verticalLabelPosition=bottom;html=1;verticalAlign=top;align=center;strokeColor=none;fillColor=#00BEF2;shape=mxgraph.azure.user;" vertex="1" parent="QqLaPCVbhCv1RFTXZ3X0-254">
          <mxGeometry x="20" width="47.5" height="50" as="geometry" />
        </mxCell>
        <mxCell id="QqLaPCVbhCv1RFTXZ3X0-256" value="" style="verticalLabelPosition=bottom;html=1;verticalAlign=top;align=center;strokeColor=none;fillColor=#00BEF2;shape=mxgraph.azure.user;" vertex="1" parent="QqLaPCVbhCv1RFTXZ3X0-254">
          <mxGeometry width="47.5" height="50" as="geometry" />
        </mxCell>
        <mxCell id="QqLaPCVbhCv1RFTXZ3X0-257" value="" style="verticalLabelPosition=bottom;html=1;verticalAlign=top;align=center;strokeColor=none;fillColor=#00BEF2;shape=mxgraph.azure.user;" vertex="1" parent="QqLaPCVbhCv1RFTXZ3X0-254">
          <mxGeometry x="36.25" width="47.5" height="50" as="geometry" />
        </mxCell>
        <mxCell id="QqLaPCVbhCv1RFTXZ3X0-258" value="... ..." style="rounded=1;whiteSpace=wrap;html=1;fillColor=#f5f5f5;strokeColor=#666666;fontColor=#333333;align=center;verticalAlign=bottom;fontStyle=1" vertex="1" parent="QqLaPCVbhCv1RFTXZ3X0-150">
          <mxGeometry x="1222.25" y="429.5" width="120" height="180" as="geometry" />
        </mxCell>
        <mxCell id="QqLaPCVbhCv1RFTXZ3X0-259" value="" style="group" vertex="1" connectable="0" parent="QqLaPCVbhCv1RFTXZ3X0-150">
          <mxGeometry x="856" y="489.5" width="83.75" height="50" as="geometry" />
        </mxCell>
        <mxCell id="QqLaPCVbhCv1RFTXZ3X0-260" value="" style="verticalLabelPosition=bottom;html=1;verticalAlign=top;align=center;strokeColor=none;fillColor=#00BEF2;shape=mxgraph.azure.user;" vertex="1" parent="QqLaPCVbhCv1RFTXZ3X0-259">
          <mxGeometry x="20" width="47.5" height="50" as="geometry" />
        </mxCell>
        <mxCell id="QqLaPCVbhCv1RFTXZ3X0-261" value="" style="verticalLabelPosition=bottom;html=1;verticalAlign=top;align=center;strokeColor=none;fillColor=#00BEF2;shape=mxgraph.azure.user;" vertex="1" parent="QqLaPCVbhCv1RFTXZ3X0-259">
          <mxGeometry width="47.5" height="50" as="geometry" />
        </mxCell>
        <mxCell id="QqLaPCVbhCv1RFTXZ3X0-262" value="" style="verticalLabelPosition=bottom;html=1;verticalAlign=top;align=center;strokeColor=none;fillColor=#00BEF2;shape=mxgraph.azure.user;" vertex="1" parent="QqLaPCVbhCv1RFTXZ3X0-259">
          <mxGeometry x="36.25" width="47.5" height="50" as="geometry" />
        </mxCell>
        <mxCell id="QqLaPCVbhCv1RFTXZ3X0-263" value="" style="group" vertex="1" connectable="0" parent="QqLaPCVbhCv1RFTXZ3X0-150">
          <mxGeometry x="1110.38" y="487.5" width="83.75" height="50" as="geometry" />
        </mxCell>
        <mxCell id="QqLaPCVbhCv1RFTXZ3X0-264" value="" style="verticalLabelPosition=bottom;html=1;verticalAlign=top;align=center;strokeColor=none;fillColor=#00BEF2;shape=mxgraph.azure.user;" vertex="1" parent="QqLaPCVbhCv1RFTXZ3X0-263">
          <mxGeometry x="20" width="47.5" height="50" as="geometry" />
        </mxCell>
        <mxCell id="QqLaPCVbhCv1RFTXZ3X0-265" value="" style="verticalLabelPosition=bottom;html=1;verticalAlign=top;align=center;strokeColor=none;fillColor=#00BEF2;shape=mxgraph.azure.user;" vertex="1" parent="QqLaPCVbhCv1RFTXZ3X0-263">
          <mxGeometry width="47.5" height="50" as="geometry" />
        </mxCell>
        <mxCell id="QqLaPCVbhCv1RFTXZ3X0-266" value="" style="verticalLabelPosition=bottom;html=1;verticalAlign=top;align=center;strokeColor=none;fillColor=#00BEF2;shape=mxgraph.azure.user;" vertex="1" parent="QqLaPCVbhCv1RFTXZ3X0-263">
          <mxGeometry x="36.25" width="47.5" height="50" as="geometry" />
        </mxCell>
        <mxCell id="QqLaPCVbhCv1RFTXZ3X0-267" value="" style="group" vertex="1" connectable="0" parent="QqLaPCVbhCv1RFTXZ3X0-150">
          <mxGeometry x="1246" y="489.5" width="83.75" height="50" as="geometry" />
        </mxCell>
        <mxCell id="QqLaPCVbhCv1RFTXZ3X0-268" value="" style="verticalLabelPosition=bottom;html=1;verticalAlign=top;align=center;strokeColor=none;fillColor=#00BEF2;shape=mxgraph.azure.user;" vertex="1" parent="QqLaPCVbhCv1RFTXZ3X0-267">
          <mxGeometry x="20" width="47.5" height="50" as="geometry" />
        </mxCell>
        <mxCell id="QqLaPCVbhCv1RFTXZ3X0-269" value="" style="verticalLabelPosition=bottom;html=1;verticalAlign=top;align=center;strokeColor=none;fillColor=#00BEF2;shape=mxgraph.azure.user;" vertex="1" parent="QqLaPCVbhCv1RFTXZ3X0-267">
          <mxGeometry width="47.5" height="50" as="geometry" />
        </mxCell>
        <mxCell id="QqLaPCVbhCv1RFTXZ3X0-270" value="" style="verticalLabelPosition=bottom;html=1;verticalAlign=top;align=center;strokeColor=none;fillColor=#00BEF2;shape=mxgraph.azure.user;" vertex="1" parent="QqLaPCVbhCv1RFTXZ3X0-267">
          <mxGeometry x="36.25" width="47.5" height="50" as="geometry" />
        </mxCell>
        <mxCell id="QqLaPCVbhCv1RFTXZ3X0-284" value="引擎" style="rounded=1;whiteSpace=wrap;html=1;fillColor=#f5f5f5;strokeColor=#666666;fontColor=#333333;align=center;verticalAlign=top;fontStyle=1" vertex="1" parent="QqLaPCVbhCv1RFTXZ3X0-150">
          <mxGeometry x="766" y="699.5" width="650" height="180" as="geometry" />
        </mxCell>
        <mxCell id="QqLaPCVbhCv1RFTXZ3X0-285" value="业务" style="rounded=1;whiteSpace=wrap;html=1;fillColor=#f5f5f5;strokeColor=#666666;fontColor=#333333;align=center;verticalAlign=bottom;fontStyle=1" vertex="1" parent="QqLaPCVbhCv1RFTXZ3X0-150">
          <mxGeometry x="766" y="919.5" width="650" height="180" as="geometry" />
        </mxCell>
        <mxCell id="QqLaPCVbhCv1RFTXZ3X0-286" value="network" style="rounded=1;whiteSpace=wrap;html=1;fillColor=#f5f5f5;strokeColor=#666666;fontColor=#333333;align=center;verticalAlign=bottom;fontStyle=1" vertex="1" parent="QqLaPCVbhCv1RFTXZ3X0-150">
          <mxGeometry x="1102.25" y="809.5" width="120" height="180" as="geometry" />
        </mxCell>
        <mxCell id="QqLaPCVbhCv1RFTXZ3X0-287" value="3C" style="rounded=1;whiteSpace=wrap;html=1;fillColor=#f5f5f5;strokeColor=#666666;fontColor=#333333;align=center;verticalAlign=bottom;fontStyle=1" vertex="1" parent="QqLaPCVbhCv1RFTXZ3X0-150">
          <mxGeometry x="972.25" y="809.5" width="120" height="180" as="geometry" />
        </mxCell>
        <mxCell id="QqLaPCVbhCv1RFTXZ3X0-288" value="input" style="rounded=1;whiteSpace=wrap;html=1;fillColor=#f5f5f5;strokeColor=#666666;fontColor=#333333;align=center;verticalAlign=bottom;fontStyle=1" vertex="1" parent="QqLaPCVbhCv1RFTXZ3X0-150">
          <mxGeometry x="846" y="809.5" width="120" height="180" as="geometry" />
        </mxCell>
        <mxCell id="QqLaPCVbhCv1RFTXZ3X0-289" value="" style="group" vertex="1" connectable="0" parent="QqLaPCVbhCv1RFTXZ3X0-150">
          <mxGeometry x="986" y="867.5" width="83.75" height="50" as="geometry" />
        </mxCell>
        <mxCell id="QqLaPCVbhCv1RFTXZ3X0-290" value="" style="verticalLabelPosition=bottom;html=1;verticalAlign=top;align=center;strokeColor=none;fillColor=#00BEF2;shape=mxgraph.azure.user;" vertex="1" parent="QqLaPCVbhCv1RFTXZ3X0-289">
          <mxGeometry x="20" width="47.5" height="50" as="geometry" />
        </mxCell>
        <mxCell id="QqLaPCVbhCv1RFTXZ3X0-291" value="" style="verticalLabelPosition=bottom;html=1;verticalAlign=top;align=center;strokeColor=none;fillColor=#00BEF2;shape=mxgraph.azure.user;" vertex="1" parent="QqLaPCVbhCv1RFTXZ3X0-289">
          <mxGeometry width="47.5" height="50" as="geometry" />
        </mxCell>
        <mxCell id="QqLaPCVbhCv1RFTXZ3X0-292" value="" style="verticalLabelPosition=bottom;html=1;verticalAlign=top;align=center;strokeColor=none;fillColor=#00BEF2;shape=mxgraph.azure.user;" vertex="1" parent="QqLaPCVbhCv1RFTXZ3X0-289">
          <mxGeometry x="36.25" width="47.5" height="50" as="geometry" />
        </mxCell>
        <mxCell id="QqLaPCVbhCv1RFTXZ3X0-293" value="... ..." style="rounded=1;whiteSpace=wrap;html=1;fillColor=#f5f5f5;strokeColor=#666666;fontColor=#333333;align=center;verticalAlign=bottom;fontStyle=1" vertex="1" parent="QqLaPCVbhCv1RFTXZ3X0-150">
          <mxGeometry x="1232.25" y="809.5" width="120" height="180" as="geometry" />
        </mxCell>
        <mxCell id="QqLaPCVbhCv1RFTXZ3X0-294" value="" style="group" vertex="1" connectable="0" parent="QqLaPCVbhCv1RFTXZ3X0-150">
          <mxGeometry x="866" y="869.5" width="83.75" height="50" as="geometry" />
        </mxCell>
        <mxCell id="QqLaPCVbhCv1RFTXZ3X0-295" value="" style="verticalLabelPosition=bottom;html=1;verticalAlign=top;align=center;strokeColor=none;fillColor=#00BEF2;shape=mxgraph.azure.user;" vertex="1" parent="QqLaPCVbhCv1RFTXZ3X0-294">
          <mxGeometry x="20" width="47.5" height="50" as="geometry" />
        </mxCell>
        <mxCell id="QqLaPCVbhCv1RFTXZ3X0-296" value="" style="verticalLabelPosition=bottom;html=1;verticalAlign=top;align=center;strokeColor=none;fillColor=#00BEF2;shape=mxgraph.azure.user;" vertex="1" parent="QqLaPCVbhCv1RFTXZ3X0-294">
          <mxGeometry width="47.5" height="50" as="geometry" />
        </mxCell>
        <mxCell id="QqLaPCVbhCv1RFTXZ3X0-297" value="" style="verticalLabelPosition=bottom;html=1;verticalAlign=top;align=center;strokeColor=none;fillColor=#00BEF2;shape=mxgraph.azure.user;" vertex="1" parent="QqLaPCVbhCv1RFTXZ3X0-294">
          <mxGeometry x="36.25" width="47.5" height="50" as="geometry" />
        </mxCell>
        <mxCell id="QqLaPCVbhCv1RFTXZ3X0-298" value="" style="group" vertex="1" connectable="0" parent="QqLaPCVbhCv1RFTXZ3X0-150">
          <mxGeometry x="1120.38" y="867.5" width="83.75" height="50" as="geometry" />
        </mxCell>
        <mxCell id="QqLaPCVbhCv1RFTXZ3X0-299" value="" style="verticalLabelPosition=bottom;html=1;verticalAlign=top;align=center;strokeColor=none;fillColor=#00BEF2;shape=mxgraph.azure.user;" vertex="1" parent="QqLaPCVbhCv1RFTXZ3X0-298">
          <mxGeometry x="20" width="47.5" height="50" as="geometry" />
        </mxCell>
        <mxCell id="QqLaPCVbhCv1RFTXZ3X0-300" value="" style="verticalLabelPosition=bottom;html=1;verticalAlign=top;align=center;strokeColor=none;fillColor=#00BEF2;shape=mxgraph.azure.user;" vertex="1" parent="QqLaPCVbhCv1RFTXZ3X0-298">
          <mxGeometry width="47.5" height="50" as="geometry" />
        </mxCell>
        <mxCell id="QqLaPCVbhCv1RFTXZ3X0-301" value="" style="verticalLabelPosition=bottom;html=1;verticalAlign=top;align=center;strokeColor=none;fillColor=#00BEF2;shape=mxgraph.azure.user;" vertex="1" parent="QqLaPCVbhCv1RFTXZ3X0-298">
          <mxGeometry x="36.25" width="47.5" height="50" as="geometry" />
        </mxCell>
        <mxCell id="QqLaPCVbhCv1RFTXZ3X0-302" value="" style="group" vertex="1" connectable="0" parent="QqLaPCVbhCv1RFTXZ3X0-150">
          <mxGeometry x="1256" y="869.5" width="83.75" height="50" as="geometry" />
        </mxCell>
        <mxCell id="QqLaPCVbhCv1RFTXZ3X0-303" value="" style="verticalLabelPosition=bottom;html=1;verticalAlign=top;align=center;strokeColor=none;fillColor=#00BEF2;shape=mxgraph.azure.user;" vertex="1" parent="QqLaPCVbhCv1RFTXZ3X0-302">
          <mxGeometry x="20" width="47.5" height="50" as="geometry" />
        </mxCell>
        <mxCell id="QqLaPCVbhCv1RFTXZ3X0-304" value="" style="verticalLabelPosition=bottom;html=1;verticalAlign=top;align=center;strokeColor=none;fillColor=#00BEF2;shape=mxgraph.azure.user;" vertex="1" parent="QqLaPCVbhCv1RFTXZ3X0-302">
          <mxGeometry width="47.5" height="50" as="geometry" />
        </mxCell>
        <mxCell id="QqLaPCVbhCv1RFTXZ3X0-305" value="" style="verticalLabelPosition=bottom;html=1;verticalAlign=top;align=center;strokeColor=none;fillColor=#00BEF2;shape=mxgraph.azure.user;" vertex="1" parent="QqLaPCVbhCv1RFTXZ3X0-302">
          <mxGeometry x="36.25" width="47.5" height="50" as="geometry" />
        </mxCell>
        <mxCell id="QqLaPCVbhCv1RFTXZ3X0-306" value="" style="group" vertex="1" connectable="0" parent="QqLaPCVbhCv1RFTXZ3X0-150">
          <mxGeometry x="1056" y="729.5" width="83.75" height="50" as="geometry" />
        </mxCell>
        <mxCell id="QqLaPCVbhCv1RFTXZ3X0-307" value="" style="verticalLabelPosition=bottom;html=1;verticalAlign=top;align=center;strokeColor=none;fillColor=#00BEF2;shape=mxgraph.azure.user;" vertex="1" parent="QqLaPCVbhCv1RFTXZ3X0-306">
          <mxGeometry x="20" width="47.5" height="50" as="geometry" />
        </mxCell>
        <mxCell id="QqLaPCVbhCv1RFTXZ3X0-308" value="" style="verticalLabelPosition=bottom;html=1;verticalAlign=top;align=center;strokeColor=none;fillColor=#00BEF2;shape=mxgraph.azure.user;" vertex="1" parent="QqLaPCVbhCv1RFTXZ3X0-306">
          <mxGeometry width="47.5" height="50" as="geometry" />
        </mxCell>
        <mxCell id="QqLaPCVbhCv1RFTXZ3X0-309" value="" style="verticalLabelPosition=bottom;html=1;verticalAlign=top;align=center;strokeColor=none;fillColor=#00BEF2;shape=mxgraph.azure.user;" vertex="1" parent="QqLaPCVbhCv1RFTXZ3X0-306">
          <mxGeometry x="36.25" width="47.5" height="50" as="geometry" />
        </mxCell>
        <mxCell id="QqLaPCVbhCv1RFTXZ3X0-310" value="" style="group" vertex="1" connectable="0" parent="QqLaPCVbhCv1RFTXZ3X0-150">
          <mxGeometry x="1046" y="1009.5" width="83.75" height="50" as="geometry" />
        </mxCell>
        <mxCell id="QqLaPCVbhCv1RFTXZ3X0-311" value="" style="verticalLabelPosition=bottom;html=1;verticalAlign=top;align=center;strokeColor=none;fillColor=#00BEF2;shape=mxgraph.azure.user;" vertex="1" parent="QqLaPCVbhCv1RFTXZ3X0-310">
          <mxGeometry x="20" width="47.5" height="50" as="geometry" />
        </mxCell>
        <mxCell id="QqLaPCVbhCv1RFTXZ3X0-312" value="" style="verticalLabelPosition=bottom;html=1;verticalAlign=top;align=center;strokeColor=none;fillColor=#00BEF2;shape=mxgraph.azure.user;" vertex="1" parent="QqLaPCVbhCv1RFTXZ3X0-310">
          <mxGeometry width="47.5" height="50" as="geometry" />
        </mxCell>
        <mxCell id="QqLaPCVbhCv1RFTXZ3X0-313" value="" style="verticalLabelPosition=bottom;html=1;verticalAlign=top;align=center;strokeColor=none;fillColor=#00BEF2;shape=mxgraph.azure.user;" vertex="1" parent="QqLaPCVbhCv1RFTXZ3X0-310">
          <mxGeometry x="36.25" width="47.5" height="50" as="geometry" />
        </mxCell>
        <mxCell id="QqLaPCVbhCv1RFTXZ3X0-159" value="" style="verticalLabelPosition=bottom;html=1;verticalAlign=top;align=center;strokeColor=none;fillColor=#00BEF2;shape=mxgraph.azure.user;" vertex="1" parent="1">
          <mxGeometry x="-143.5" y="2068" width="47.5" height="50" as="geometry" />
        </mxCell>
        <mxCell id="QqLaPCVbhCv1RFTXZ3X0-178" value="" style="group" vertex="1" connectable="0" parent="1">
          <mxGeometry x="-150" y="1970" width="83.75" height="50" as="geometry" />
        </mxCell>
        <mxCell id="QqLaPCVbhCv1RFTXZ3X0-179" value="" style="verticalLabelPosition=bottom;html=1;verticalAlign=top;align=center;strokeColor=none;fillColor=#00BEF2;shape=mxgraph.azure.user;" vertex="1" parent="QqLaPCVbhCv1RFTXZ3X0-178">
          <mxGeometry x="20" width="47.5" height="50" as="geometry" />
        </mxCell>
        <mxCell id="QqLaPCVbhCv1RFTXZ3X0-180" value="" style="verticalLabelPosition=bottom;html=1;verticalAlign=top;align=center;strokeColor=none;fillColor=#00BEF2;shape=mxgraph.azure.user;" vertex="1" parent="QqLaPCVbhCv1RFTXZ3X0-178">
          <mxGeometry width="47.5" height="50" as="geometry" />
        </mxCell>
        <mxCell id="QqLaPCVbhCv1RFTXZ3X0-181" value="" style="verticalLabelPosition=bottom;html=1;verticalAlign=top;align=center;strokeColor=none;fillColor=#00BEF2;shape=mxgraph.azure.user;" vertex="1" parent="QqLaPCVbhCv1RFTXZ3X0-178">
          <mxGeometry x="36.25" width="47.5" height="50" as="geometry" />
        </mxCell>
        <mxCell id="QqLaPCVbhCv1RFTXZ3X0-231" value="" style="shape=flexArrow;endArrow=classic;html=1;" edge="1" parent="1">
          <mxGeometry width="50" height="50" relative="1" as="geometry">
            <mxPoint x="1540" y="1080" as="sourcePoint" />
            <mxPoint x="1620" y="1080" as="targetPoint" />
          </mxGeometry>
        </mxCell>
        <mxCell id="QqLaPCVbhCv1RFTXZ3X0-273" value="" style="shape=flexArrow;endArrow=classic;html=1;" edge="1" parent="1">
          <mxGeometry width="50" height="50" relative="1" as="geometry">
            <mxPoint x="-30" y="1720" as="sourcePoint" />
            <mxPoint x="-30" y="1800" as="targetPoint" />
          </mxGeometry>
        </mxCell>
        <mxCell id="QqLaPCVbhCv1RFTXZ3X0-274" value="" style="shape=flexArrow;endArrow=classic;html=1;" edge="1" parent="1">
          <mxGeometry width="50" height="50" relative="1" as="geometry">
            <mxPoint x="1250" y="1190" as="sourcePoint" />
            <mxPoint x="1250" y="1270" as="targetPoint" />
          </mxGeometry>
        </mxCell>
        <mxCell id="QqLaPCVbhCv1RFTXZ3X0-314" value="" style="shape=flexArrow;endArrow=classic;html=1;" edge="1" parent="1">
          <mxGeometry width="50" height="50" relative="1" as="geometry">
            <mxPoint x="1239.999999999999" y="1469.9999999999998" as="sourcePoint" />
            <mxPoint x="1239.999999999999" y="1550" as="targetPoint" />
          </mxGeometry>
        </mxCell>
      </root>
    </mxGraphModel>
  </diagram>
</mxfile>
